/* XPM */
static char *player[] = {
/* columns rows colors chars-per-pixel */
"32 32 7 1 ",
"  c None",
". c #FF0000",  /* Red */
"X c #FF6347",  /* Tomato */
"o c #FFA07A",  /* Light Salmon */
"O c #FFFFFF",  /* White */
"+ c #8B0000",  /* Dark Red */
"# c #000000",  /* Black */
/* pixels */
"                                ",
"            ++++++++            ",
"           ++++++++++           ",
"          ++++++++++++          ",
"         ++++++++++++++         ",
"        +++++++++++++++++       ",
"       +++++++++++++++++++      ",
"      +++++++++++++++++++++     ",
"     +++++++++++++++++++++++    ",
"    +++++++OOOOOOOOOO+++++++    ",
"   ++++++OOOOOOOOOOOOOO++++++   ",
"  ++++++OOOOOOOOOOOOOOOO++++++  ",
"  ++++++OO############OO++++++  ",
" ++++++OO##############OO++++++ ",
" ++++++OO##@@######@@##OO++++++ ",
" ++++++OO##@@######@@##OO++++++ ",
" ++++++OO################++++++ ",
" ++++++OO################++++++ ",
" +++++++OO##############OO+++++ ",
" ++++++++OO############OO++++++ ",
" +++++++++OOOOOOOOOOOOOO+++++++ ",
" ++++++++++OOOOOOOOOOOO++++++++ ",
"  +++++++++++OOOOOOOO+++++++++  ",
"   ++++++++++++OOOO++++++++++   ",
"    ++++++++++++++++++++++++    ",
"     ++++++++++++++++++++++     ",
"      ++++++++++++++++++++      ",
"       ++++++++++++++++++       ",
"        ++++++++++++++++        ",
"         ++++++++++++++         ",
"          ++++++++++++          ",
"           ++++++++++           ",
};
